Coordinates
version=1
nRows=9
nColumns=38
inDegrees=yes

Units are S.I. units (second, meters, Newtons, ...)
Angles are in degrees.

endheader
time	pelvis_tilt	pelvis_list	pelvis_rotation	pelvis_tx	pelvis_ty	pelvis_tz	hip_flexion_r	hip_adduction_r	hip_rotation_r	knee_angle_r	ankle_angle_r	subtalar_angle_r	mtp_angle_r	hip_flexion_l	hip_adduction_l	hip_rotation_l	knee_angle_l	ankle_angle_l	subtalar_angle_l	mtp_angle_l	lumbar_extension	lumbar_bending	lumbar_rotation	arm_flex_r	arm_add_r	arm_rot_r	elbow_flex_r	pro_sup_r	wrist_flex_r	wrist_dev_r	arm_flex_l	arm_add_l	arm_rot_l	elbow_flex_l	pro_sup_l	wrist_flex_l	wrist_dev_l
      1.84000000	     -1.38503618	      2.72447309	     -5.22677492	      0.72489283	      0.93940433	     -0.25045013	     -5.85139112	     -4.59510013	    -10.17563554	    -33.79400287	     16.05924625	      9.11095078	      0.00000000	     27.67327762	      1.12484205	    -14.55999617	    -18.48037178	      5.21571358	     -6.45023587	      0.00000000	     -2.27468470	     -4.88861406	      1.83884954	     15.63518280	     -8.52679177	     47.46097241	     32.52237402	     42.77240230	      0.00000000	      0.00000000	     -4.01209441	     -8.70702403	     43.02449741	     18.63101105	     42.77240230	      0.00000000	      0.00000000
      1.85000000	     -1.39968028	      3.21860207	     -5.30814335	      0.73820083	      0.93954620	     -0.25212818	     -5.22897061	     -5.68866287	    -10.05148836	    -36.04215858	     13.64896965	      9.58739859	      0.00000000	     27.66820120	      1.58804352	    -14.90572328	    -19.36163479	      3.58234820	     -7.92112797	      0.00000000	     -2.14286297	     -5.45796518	      1.78197330	     14.79192801	     -8.08409662	     45.31311343	     32.72140113	     43.42186629	      0.00000000	      0.00000000	     -4.26939374	     -8.58567912	     40.65055268	     19.07940959	     43.42186629	      0.00000000	      0.00000000
      1.86000000	     -1.31109148	      3.49522057	     -5.25015052	      0.75159852	      0.94003371	     -0.25365736	     -4.52797912	     -6.53323800	    -10.13132589	    -38.54938619	     10.37368699	      9.44110203	      0.00000000	     27.58104442	      1.82179227	    -15.10381550	    -20.77276655	      2.30931187	     -8.10313067	      0.00000000	     -2.15102230	     -5.83443374	      1.54613868	     14.29081434	     -7.80616613	     45.37987787	     32.64707739	     43.43231057	      0.00000000	      0.00000000	     -4.36585584	     -8.50864623	     40.65435166	     19.10475879	     43.43231057	      0.00000000	      0.00000000
      1.87000000	     -1.16760171	      3.79096082	     -5.25696449	      0.76491374	      0.94074558	     -0.25514341	     -3.61014683	     -7.42356172	    -10.16466558	    -41.27104188	      6.95224665	      9.04706233	      0.00000000	     27.47521885	      2.23817537	    -14.49534391	    -22.23162506	      2.07998104	     -8.69355595	      0.00000000	     -2.22900030	     -6.20003635	      1.28808884	     13.74197351	     -7.54352601	     45.43172261	     32.50665119	     43.44001258	      0.00000000	      0.00000000	     -4.36417633	     -8.48802067	     40.65239441	     19.12919192	     43.44001258	      0.00000000	      0.00000000
      1.88000000	     -1.26667932	      4.23430130	     -5.15496757	      0.77779582	      0.94118720	     -0.25715856	     -2.13813917	     -8.27211284	     -9.84540739	    -44.17686750	      2.97940947	      7.44487369	      0.00000000	     27.46352142	      3.30817918	    -12.57016571	    -22.96293875	      1.07382466	    -11.97937379	      0.00000000	     -2.04798354	     -6.67968735	      1.01670453	     13.20595635	     -7.11250562	     45.26090887	     31.74507444	     43.48259078	      0.00000000	      0.00000000	     -4.32875155	     -8.47796943	     40.63952334	     19.24512251	     43.48259078	      0.00000000	      0.00000000
      1.89000000	     -1.12296968	      4.62122282	     -5.05111610	      0.79072715	      0.94211330	     -0.25941048	     -0.84114453	     -9.12110393	     -9.65508941	    -46.96151424	     -1.29929331	      5.80684512	      0.00000000	     26.98417711	      4.39039074	    -10.73253945	    -23.57708078	      0.52062677	    -14.36778451	      0.00000000	     -2.15605182	     -7.06647626	      0.65667398	     12.72163525	     -6.76383179	     45.18618881	     31.09199240	     43.53022492	      0.00000000	      0.00000000	     -4.19292517	     -8.42567419	     40.62620693	     19.36263169	     43.53022492	      0.00000000	      0.00000000
      1.90000000	     -1.04960439	      4.92103555	     -4.97781457	      0.80345608	      0.94294078	     -0.26157494	      0.62133802	     -9.73329596	     -9.13171762	    -49.68368774	     -5.48077374	      4.16040095	      0.00000000	     26.65065325	      5.10577073	     -9.95670676	    -24.47978232	      1.00120475	    -15.27691297	      0.00000000	     -2.18645732	     -7.32007100	      0.34972861	     12.20571154	     -6.50042137	     45.20080766	     30.69520390	     43.55668992	      0.00000000	      0.00000000	     -4.03548496	     -8.36785014	     40.63364097	     19.45674198	     43.55668992	      0.00000000	      0.00000000
      1.91000000	     -0.91593259	      5.11248913	     -4.86455380	      0.81595520	      0.94388655	     -0.26371656	      2.12384762	    -10.41455723	     -8.89418243	    -52.57257875	     -9.62034476	      3.63457707	      0.00000000	     26.18428218	      5.58518455	     -9.42100953	    -25.40339560	      1.78240490	    -15.67161453	      0.00000000	     -2.31146386	     -7.43481517	      0.00460947	     11.69391324	     -6.32685178	     45.22867440	     30.43390561	     43.56772952	      0.00000000	      0.00000000	     -3.76699729	     -8.29972688	     40.64305339	     19.55898556	     43.56772952	      0.00000000	      0.00000000
      1.92000000	     -0.85142775	      5.38128630	     -4.77493865	      0.82816114	      0.94469673	     -0.26584832	      3.84552601	    -11.51605693	     -9.27091292	    -55.67724827	    -13.03923489	      2.90327494	      0.00000000	     25.70290659	      6.19173722	     -9.02846307	    -26.07334314	      2.62779719	    -16.02314704	      0.00000000	     -2.34455553	     -7.61844253	     -0.32721197	     11.20327345	     -6.13898715	     45.24029397	     30.13462807	     43.57744574	      0.00000000	      0.00000000	     -3.42250671	     -8.21717307	     40.67437345	     19.71379828	     43.57744574	      0.00000000	      0.00000000
